<svg viewBox="0 0 288.494 60" fill="none" xmlns="http://www.w3.org/2000/svg">
<path id="Vector" d="M0 59.4901H12.7479V39.5185H23.4562L33.4844 59.4901H47.5921L35.8641 36.544C42.068 33.5695 46.0623 27.4505 46.0623 19.8017C46.0623 7.73376 37.3088 0 24.221 0H0V59.4901ZM23.2011 10.6232C29.2352 10.6232 33.0596 14.1927 33.0596 19.8017C33.0596 25.3259 29.2352 28.8952 23.2011 28.8952H12.7479V10.6232H23.2011ZM72.9378 60C84.5809 60 92.1446 53.2011 93.5044 44.7027H81.6913C80.6716 48.7819 77.2721 50.9065 72.4279 50.9065C66.394 50.9065 62.3996 47.1672 62.1445 40.9632V40.3684H93.8444C94.0992 39.0085 94.1843 37.5638 94.1843 36.2889C94.0143 23.4561 85.1757 15.2974 72.0879 15.2974C58.5752 15.2974 49.6517 24.136 49.6517 37.7338C49.6517 51.2465 58.4052 60 72.9378 60ZM62.3996 32.5496C63.0795 27.3654 66.9888 24.2209 72.173 24.2209C77.6121 24.2209 81.2665 27.1954 82.1163 32.5496H62.3996ZM98.3613 44.9575C98.8712 54.3061 107.115 60 119.268 60C130.996 60 139.154 54.476 139.154 45.8074C139.154 35.9489 130.826 33.6544 120.797 32.6345C114.509 31.8697 110.769 31.5297 110.769 28.2153C110.769 25.4108 113.829 23.711 118.503 23.711C123.347 23.711 126.662 25.8356 127.002 29.32H138.474C137.88 20.3965 129.806 15.2125 118.078 15.2125C106.86 15.1275 99.2961 20.8216 99.2961 29.49C99.2961 38.4986 107.2 40.7932 117.398 41.983C124.452 42.9178 127.426 43.1729 127.426 46.7422C127.426 49.8018 124.367 51.4165 119.353 51.4165C113.489 51.4165 110.174 48.7819 109.749 44.9575H98.3613ZM167.053 60C178.696 60 186.26 53.2011 187.62 44.7027H175.807C174.787 48.7819 171.387 50.9065 166.543 50.9065C160.509 50.9065 156.515 47.1672 156.26 40.9632V40.3684H187.96C188.215 39.0085 188.3 37.5638 188.3 36.2889C188.13 23.4561 179.291 15.2974 166.203 15.2974C152.691 15.2974 143.767 24.136 143.767 37.7338C143.767 51.2465 152.521 60 167.053 60ZM156.515 32.5496C157.195 27.3654 161.104 24.2209 166.288 24.2209C171.727 24.2209 175.382 27.1954 176.231 32.5496H156.515ZM219.919 15.2974C213.206 15.2974 209.21 17.8471 206.407 21.2464L205.301 15.8074H194.848V59.4901H206.83V37.1388C206.83 29.5751 210.4 25.1559 216.604 25.1559C222.638 25.1559 225.444 29.0652 225.444 36.4589V59.4901H237.426V35.2692C237.426 20.3117 229.353 15.2974 219.919 15.2974ZM276.511 21.2464C273.705 17.6771 269.371 15.2974 263.338 15.2974C251.695 15.2974 243.112 24.051 243.112 37.5638C243.112 51.4165 251.695 60 263.422 60C269.712 60 273.96 57.1955 276.85 53.4562L278.04 59.4901H288.494V0H276.511V21.2464ZM266.057 50.2266C259.513 50.2266 255.349 45.1275 255.349 37.6487C255.349 30.1699 259.513 25.0708 266.057 25.0708C272.602 25.0708 276.679 30.255 276.679 37.7338C276.679 45.1275 272.602 50.2266 266.057 50.2266Z" fill="var(--fill-0, black)"/>
</svg>
