<svg viewBox="0 0 438.426 93.7503" fill="none" xmlns="http://www.w3.org/2000/svg">
<g id="supabase">
<path id="Vector" d="M104.857 59.3338C105.295 63.718 109.314 71.1712 120.786 71.1712C130.797 71.1712 135.62 64.8141 135.62 58.6031C135.62 52.9766 131.82 48.4462 124.294 46.8386L118.886 45.6695C116.767 45.3041 115.379 44.135 115.379 42.2351C115.379 40.043 117.571 38.4355 120.275 38.4355C124.659 38.4355 126.267 41.2852 126.559 43.5504L135.181 41.5775C134.743 37.4855 131.089 30.5438 120.202 30.5438C111.945 30.5438 105.88 36.2433 105.88 43.0389C105.88 48.3731 109.241 52.8304 116.621 54.438L121.663 55.6071C124.586 56.2648 125.755 57.6531 125.755 59.3338C125.755 61.3797 124.148 63.1334 120.713 63.1334C116.183 63.1334 113.991 60.3567 113.698 57.2878L104.857 59.3338ZM168.648 70.0021H178.512C178.366 68.6868 178.147 66.0563 178.147 63.0604V31.7129H167.844V53.9265C167.844 58.3838 165.213 61.4528 160.61 61.4528C155.787 61.4528 153.595 58.0185 153.595 53.7804V31.7129H143.219V55.8994C143.219 64.2295 148.48 70.952 157.76 70.952C161.779 70.952 166.236 69.4175 168.355 65.8371C168.282 67.4446 168.429 69.1983 168.648 70.0021ZM199.484 84.7624V66.2755C201.384 68.833 205.256 70.952 210.517 70.952C221.332 70.952 228.566 62.4027 228.566 50.7845C228.566 39.4585 222.136 30.9092 210.956 30.9092C205.183 30.9092 200.945 33.4666 199.191 36.4625V31.786H189.181V84.7624H199.484ZM218.336 50.8575C218.336 57.7262 214.171 61.672 208.837 61.672C203.576 61.672 199.265 57.6531 199.265 50.8575C199.265 44.0619 203.503 40.1161 208.837 40.1161C214.098 40.1161 218.336 44.0619 218.336 50.8575ZM234.339 59.553C234.339 65.5448 239.307 71.0982 247.491 71.0982C253.191 71.0982 256.844 68.4676 258.744 65.3986C258.744 66.8601 258.89 68.9791 259.11 70.0021H268.609C268.39 68.6868 268.17 65.9832 268.17 63.9372V45.0849C268.17 37.4125 263.64 30.5438 251.583 30.5438C241.353 30.5438 235.8 37.1202 235.215 43.112L244.349 45.0849C244.642 41.7237 247.126 38.8739 251.656 38.8739C256.041 38.8739 258.087 41.1391 258.087 43.8427C258.087 45.158 257.356 46.2541 255.237 46.5463L245.811 47.9347C239.38 48.8846 234.339 52.6843 234.339 59.553ZM249.683 63.3527C246.322 63.3527 244.715 61.1605 244.715 58.8953C244.715 55.9725 246.834 54.438 249.464 54.0726L258.087 52.7574V54.438C258.014 61.3067 253.995 63.3527 249.683 63.3527ZM288.557 70.0021V65.3256C290.603 68.6138 294.622 70.952 299.883 70.952C310.771 70.952 317.932 62.3297 317.932 50.7114C317.932 39.3854 311.501 30.6899 300.322 30.6899C294.622 30.6899 290.457 33.1744 288.776 35.878V13.6644H278.62V69.929H288.557V70.0021ZM307.629 50.7845C307.629 57.7993 303.464 61.672 298.129 61.672C292.941 61.672 288.557 57.7262 288.557 50.7845C288.557 43.7696 292.941 39.97 298.129 39.97C303.391 39.97 307.629 43.7696 307.629 50.7845ZM323.777 59.553C323.777 65.5448 328.746 71.0982 336.93 71.0982C342.63 71.0982 346.283 68.4676 348.183 65.3986C348.183 66.8601 348.329 68.9791 348.548 70.0021H358.048C357.828 68.6868 357.609 65.9832 357.609 63.9372V45.0849C357.609 37.4125 353.079 30.5438 341.022 30.5438C330.792 30.5438 325.239 37.1202 324.654 43.112L333.788 45.0849C334.08 41.7237 336.565 38.8739 341.095 38.8739C345.479 38.8739 347.525 41.1391 347.525 43.8427C347.525 45.158 346.795 46.2541 344.676 46.5463L335.249 47.9347C328.819 48.8846 323.777 52.6843 323.777 59.553ZM339.049 63.3527C335.688 63.3527 334.08 61.1605 334.08 58.8953C334.08 55.9725 336.199 54.438 338.83 54.0726L347.452 52.7574V54.438C347.452 61.3067 343.433 63.3527 339.049 63.3527ZM364.697 59.3338C365.136 63.718 369.154 71.1712 380.627 71.1712C390.637 71.1712 395.46 64.8141 395.46 58.6031C395.46 52.9766 391.66 48.4462 384.134 46.8386L378.727 45.6695C376.608 45.3041 375.219 44.135 375.219 42.2351C375.219 40.043 377.411 38.4355 380.115 38.4355C384.499 38.4355 386.107 41.2852 386.399 43.5504L395.022 41.5775C394.583 37.4855 390.93 30.5438 380.042 30.5438C371.785 30.5438 365.72 36.2433 365.72 43.0389C365.72 48.3731 369.081 52.8304 376.462 54.438L381.503 55.6071C384.426 56.2648 385.595 57.6531 385.595 59.3338C385.595 61.3797 383.988 63.1334 380.553 63.1334C376.023 63.1334 373.831 60.3567 373.539 57.2878L364.697 59.3338ZM411.17 46.4733C411.389 42.9659 414.385 38.947 419.72 38.947C425.638 38.947 428.123 42.6736 428.269 46.4733H411.17ZM429.292 56.484C428.05 59.9183 425.419 62.3297 420.596 62.3297C415.481 62.3297 411.17 58.6761 410.951 53.6342H438.28C438.28 53.4881 438.426 51.9536 438.426 50.4191C438.426 38.1432 431.338 30.6169 419.573 30.6169C409.782 30.6169 400.794 38.5816 400.794 50.7845C400.794 63.718 410.001 71.2443 420.523 71.2443C429.949 71.2443 436.014 65.6909 437.914 59.1145L429.292 56.484Z" fill="var(--fill-0, #1F1F1F)"/>
<path id="Vector_2" d="M4.09197 57.2145C1.82677 57.2145 0 55.3878 0 53.1226C0 52.2457 0.292284 51.3689 0.803781 50.7112L2.33827 48.5191L37.7777 0.657634C38.07 0.292279 38.5084 0 39.0199 0C39.8967 0 40.5544 0.657643 40.5544 1.53449V1.68062V57.1415H4.09197V57.2145Z" fill="var(--fill-0, #3ECF8E)"/>
<path id="Vector_3" d="M77.1629 36.5356C79.4281 36.5356 81.2549 38.3624 81.2549 40.6276C81.2549 41.5044 80.9626 42.3813 80.4511 43.0389L78.9166 45.231L43.4772 93.0925C43.1849 93.4578 42.7465 93.7501 42.235 93.7501C41.3581 93.7501 40.7005 93.0925 40.7005 92.2156V92.0695V36.5356H77.1629Z" fill="url(#paint0_linear_0_19)"/>
<path id="Vector_4" d="M77.1629 36.5356C79.4281 36.5356 81.2549 38.3624 81.2549 40.6276C81.2549 41.5044 80.9626 42.3813 80.4511 43.0389L78.9166 45.231L43.4772 93.0925C43.1849 93.4578 42.7465 93.7501 42.235 93.7501C41.3581 93.7501 40.7005 93.0925 40.7005 92.2156V92.0695V36.5356H77.1629Z" fill="url(#paint1_linear_0_19)" fill-opacity="0.2"/>
</g>
<defs>
<linearGradient id="paint0_linear_0_19" x1="37.4767" y1="56.3686" x2="67.7407" y2="68.1781" gradientUnits="userSpaceOnUse">
<stop stop-color="#249361"/>
<stop offset="1" stop-color="#3ECF8E"/>
</linearGradient>
<linearGradient id="paint1_linear_0_19" x1="36.7379" y1="23.7078" x2="51.8453" y2="50.1677" gradientUnits="userSpaceOnUse">
<stop/>
<stop offset="1" stop-opacity="0"/>
</linearGradient>
</defs>
</svg>
